<svg viewBox="0 0 400 400" xmlns="http://www.w3.org/2000/svg">
  <rect width="400" height="400" fill="#f5f5f5"/>
  <path d="M 200 100 Q 160 140 150 200 Q 160 260 200 280 Q 240 260 250 200 Q 240 140 200 100" fill="#e74c3c"/>
  <circle cx="170" cy="160" r="8" fill="#f39c12"/>
  <circle cx="190" cy="145" r="8" fill="#f39c12"/>
  <circle cx="210" cy="145" r="8" fill="#f39c12"/>
  <circle cx="230" cy="160" r="8" fill="#f39c12"/>
  <circle cx="175" cy="190" r="8" fill="#f39c12"/>
  <circle cx="200" cy="180" r="8" fill="#f39c12"/>
  <circle cx="225" cy="190" r="8" fill="#f39c12"/>
  <circle cx="170" cy="220" r="8" fill="#f39c12"/>
  <circle cx="200" cy="235" r="8" fill="#f39c12"/>
  <circle cx="230" cy="220" r="8" fill="#f39c12"/>
  <path d="M 190 90 L 180 70 L 185 75 M 200 85 L 200 60 L 205 65 M 210 90 L 220 70 L 215 75" stroke="#27ae60" stroke-width="5" fill="none" stroke-linecap="round"/>
  <text x="200" y="350" font-size="28" font-weight="bold" text-anchor="middle" fill="#333">Fraises</text>
</svg>